<svg width="56" height="56" viewBox="0 0 56 56" fill="none" xmlns="http://www.w3.org/2000/svg">
<path d="M17.2864 6.58072C19.9179 8.68388 21.9083 11.6397 23.6031 14.3511L24.9308 16.4927C25.7762 17.8465 25.6366 19.6829 24.5633 20.859L21.7374 23.955L22.0365 24.6477C22.7652 26.2661 24.0228 28.5987 25.917 30.674C27.3741 32.2705 28.9701 33.4543 30.3014 34.279L31.0652 34.7311L31.746 35.0997C31.8515 35.1543 31.9528 35.2055 32.0493 35.2534L34.8739 32.1589C35.9481 30.9817 37.6314 30.8265 38.8697 31.7667L40.9824 33.3713C43.3815 35.2207 45.8871 37.3285 47.8358 40.0629C48.5475 41.0613 48.6531 42.3672 48.2287 43.4523C46.4854 47.9091 42.0737 51.7049 37.4845 51.5197L36.8584 51.4816L36.3731 51.4358L35.8361 51.3698L35.2495 51.2807L34.6155 51.1651L33.9365 51.02L33.2145 50.8421L32.4519 50.6283L31.6508 50.3755L30.8134 50.0804C26.9669 48.6526 22.086 45.8451 17.0782 40.3582C12.0703 34.8713 9.50798 29.5236 8.20483 25.3093L7.93548 24.3918L7.7047 23.514L7.50958 22.6785L7.34724 21.8875C7.29826 21.6315 7.25427 21.3834 7.21478 21.1435L7.1093 20.4489L7.02792 19.8062L6.96775 19.2178L6.92588 18.6861L6.89108 18.0001C6.72277 12.9887 10.2265 8.1195 14.2757 6.21815C15.2258 5.77199 16.3766 5.85364 17.2864 6.58072ZM15.3518 10.7084C13.1197 11.9878 10.9568 14.9095 11.0549 17.8322L11.0981 18.5819L11.1411 19.0482L11.2024 19.5721L11.2853 20.1511L11.3929 20.7827L11.5283 21.4644L11.6946 22.1937L11.8949 22.968L12.1324 23.7848C12.2181 24.0639 12.3106 24.3497 12.4102 24.6417L12.7315 25.5361L13.0992 26.4654C14.4062 29.6188 16.541 33.3135 20.0245 37.1302C23.508 40.9469 26.8801 43.2859 29.7582 44.7178L30.6065 45.1208L31.4228 45.4727C31.6893 45.5819 31.9501 45.6832 32.2048 45.7771L32.9504 46.0373L33.6571 46.2568L34.3227 46.439L34.9448 46.5874L35.5213 46.7052L36.0498 46.7961L36.5279 46.8633L36.9535 46.9104L37.6377 46.9577C40.272 47.0639 42.9591 44.708 44.1206 42.2937C42.6377 40.3872 40.7962 38.8229 38.7645 37.2472L37.2077 36.0578L36.8102 36.5121L35.966 37.5235L35.5173 38.0406C34.296 39.4029 32.8722 40.5609 31.1641 39.804L30.6925 39.5876L30.1178 39.3052C30.0141 39.2525 29.9068 39.1969 29.7959 39.1385L29.0918 38.7525L28.3181 38.2946C26.7104 37.3052 24.7665 35.8696 22.9707 33.9021C21.1751 31.9346 19.8648 29.8048 18.9617 28.0433L18.5437 27.1956L18.1915 26.4241L17.7815 25.4418L17.584 24.9251C16.9358 23.1691 17.8267 21.6863 18.9669 20.4038L19.4332 19.9013L20.595 18.7318L21.01 18.2959L20.0254 16.7154C18.5615 14.3893 17.1278 12.2865 15.3518 10.7084ZM34.2331 14.786L34.4747 14.8171C35.9912 15.1101 37.3841 15.9215 38.4539 17.1351C39.5235 18.3488 40.215 19.9023 40.4293 21.573C40.5895 22.8214 39.7956 23.9755 38.6562 24.151C37.5982 24.314 36.6142 23.5756 36.351 22.4698L36.3033 22.2083C36.2114 21.4923 35.915 20.8265 35.4566 20.3064C35.0745 19.873 34.5963 19.5592 34.0714 19.394L33.7512 19.313C32.6183 19.0941 31.8616 17.9102 32.0614 16.6687C32.2469 15.5158 33.1919 14.7187 34.2331 14.786ZM34.2504 7.84794C35.8918 7.84794 37.5175 8.20217 39.0339 8.89045C40.5506 9.57872 41.9285 10.5875 43.0893 11.8593C44.25 13.1311 45.1708 14.6409 45.7989 16.3025C46.427 17.9641 46.7504 19.7451 46.7504 21.5436C46.7504 22.8042 45.8177 23.8262 44.667 23.8262C43.5986 23.8262 42.7181 22.945 42.5977 21.8098L42.5837 21.5436C42.5837 20.3446 42.3683 19.1573 41.9493 18.0495C41.5306 16.9418 40.9168 15.9352 40.1429 15.0874C39.3691 14.2396 38.4506 13.567 37.4393 13.1082C36.5968 12.7258 35.7039 12.4981 34.7964 12.4328L34.2504 12.4132C33.0997 12.4132 32.167 11.3912 32.167 10.1305C32.167 8.8699 33.0997 7.84794 34.2504 7.84794Z" fill="#E04D53"/>
</svg>
