<svg width="150" height="58" viewBox="0 0 150 58" fill="none" xmlns="http://www.w3.org/2000/svg">
<path fill-rule="evenodd" clip-rule="evenodd" d="M5.19955 32.8282C5.02157 31.6043 4.54484 28.2942 4.57026 27.9518C4.64654 26.9436 8.30151 27.4635 8.60027 27.8567C8.85452 29.5054 9.05157 31.1541 9.19777 32.8155L5.19955 32.8282ZM11.734 14.3057H21.7454V22.175H11.734V14.3057ZM18.4592 23.8935H21.9171V24.5593H18.4592V23.8935ZM31.8332 1.8326C25.5021 1.88967 15.7195 1.67407 9.87792 3.62081C9.21684 3.84275 7.26541 4.93343 5.8797 5.9924C4.98979 6.6709 3.88376 7.97084 3.79477 9.10591C3.76935 9.41662 3.79477 9.76539 3.87741 10.1649C3.9664 10.5834 3.85198 10.4756 3.63586 10.5834C2.71417 11.04 1.86876 12.0672 2.04039 13.1452C2.25651 14.4832 3.84563 13.8681 4.48763 13.4686C4.62747 13.3735 4.69739 13.3798 4.63383 13.6081C4.15709 15.5866 2.3455 26.0368 3.94733 32.0926C4.01089 32.3399 4.03632 32.6126 4.04268 32.8408C4.04268 32.8472 3.87105 34.9715 3.87105 35.3266C3.87105 35.6817 3.91555 42.5301 3.91555 42.5301C3.91555 42.5301 2.94301 42.9296 2.89851 43.3672C2.85402 43.811 2.80952 48.9347 2.80952 49.8225C2.80952 50.7039 2.80952 51.3253 3.47695 51.7248C4.14438 52.1243 5.60637 52.1687 6.48992 52.1243C7.37347 52.0799 7.46246 51.636 7.46246 51.636C7.46246 51.636 5.82249 51.4141 5.42203 50.799C5.02157 50.1776 4.62747 45.2315 4.84359 44.5213C5.06607 43.811 5.72714 43.773 6.17209 43.6398C6.61705 43.5067 6.70604 35.5485 6.70604 35.5485H35.9585L34.2105 1.79456L31.8332 1.8326ZM31.9603 3.28473C31.9476 3.25936 31.9349 3.24668 31.9349 3.24668C27.8349 3.40521 15.7577 2.89792 9.01344 8.02157C8.74646 8.52886 8.41593 7.73622 8.08539 7.51428C7.5006 7.12112 7.08107 7.12747 6.10853 7.17185C11.8738 2.02284 24.0211 2.74573 31.884 2.49208C31.9158 2.75207 31.9412 3.0184 31.9603 3.28473ZM10.2212 9.37223C10.5898 9.01713 11.8421 7.92645 14.5372 6.72797C20.6585 4.00762 25.661 4.4515 32.0048 3.86177C32.0111 3.86177 32.0175 3.86177 32.0239 3.86177C32.3226 7.05137 32.6341 10.241 32.9455 13.4306C32.348 13.4179 31.0895 14.35 31.1022 15.1237L31.3946 32.3462C31.4009 32.5555 31.5471 32.5555 31.5471 32.3209C31.5853 30.2346 31.7124 21.1604 32.062 18.7508C32.3417 16.8485 32.8248 15.631 33.1045 15.0602C33.6829 20.9575 34.2804 26.8485 34.8716 32.7457L9.98598 32.8091H10.1004C10.0559 32.4731 9.42025 27.6348 9.75079 26.1002C10.5453 22.3843 11.7149 23.1516 16.1581 23.0818C17.9316 23.0564 22.4701 23.1833 22.4701 23.1833C23.538 23.4369 23.7541 31.0336 23.8876 32.4667L25.2606 32.5111C25.2606 31.8009 24.8156 9.81612 24.8156 9.81612L23.7541 9.80977L23.7986 11.3317C19.7241 11.4014 15.6877 11.4204 11.6132 11.4204L11.5687 12.3462C11.5687 12.3462 10.5517 12.435 10.2402 12.435C9.96691 12.435 10.005 10.8053 10.0114 9.9366C9.99869 9.70832 10.0432 9.54345 10.2212 9.37223Z" fill="#ED1C24"/>
<path fill-rule="evenodd" clip-rule="evenodd" d="M7.97734 11.858H6.3183C5.68265 12.5048 4.04904 20.9702 4.30966 24.1978C4.12532 25.948 6.50899 24.8003 8.94352 24.4325C8.55578 20.2727 8.05997 15.7704 7.97734 11.858Z" fill="#161616"/>
<path fill-rule="evenodd" clip-rule="evenodd" d="M35.7869 1.80089H147.248L146.955 3.46227L92.9252 5.12999L146.37 6.77869L145.995 8.87127L91.9145 10.5453L145.411 12.194L145.042 14.293L91.0119 15.9607L144.457 17.6094L144.082 19.7083L90.0902 21.376L143.497 23.0247L143.129 25.1237L89.1622 26.7914L142.544 28.4401L142.175 30.5453L88.215 32.2067L141.59 33.8554L141.292 35.5358H37.662L35.7869 1.80089Z" fill="white"/>
<path d="M9.87421 50.5105L11.7161 39.4155H19.5173L19.1055 41.8426H14.3165L14.0131 43.7495H18.3254L17.9137 46.1765H13.6014L12.8863 50.5105H9.87421ZM24.1546 39.4155H27.1234L25.8665 47.0216C25.7437 47.744 25.4584 48.3796 25.0106 48.9286C24.5627 49.4739 23.9975 49.9001 23.3149 50.2071C22.6323 50.5105 21.8793 50.6622 21.0558 50.6622C20.3479 50.6622 19.7195 50.5394 19.1705 50.2938C18.6252 50.0446 18.2207 49.6545 17.957 49.1236C17.697 48.5891 17.6392 47.8957 17.7837 47.0433H20.7958C20.7597 47.325 20.7669 47.5616 20.8175 47.753C20.868 47.9408 20.9619 48.0835 21.0992 48.181C21.2364 48.2749 21.417 48.3218 21.6409 48.3218C21.8648 48.3218 22.0617 48.2731 22.2314 48.1756C22.4012 48.0744 22.542 47.9282 22.654 47.7367C22.7659 47.5417 22.8472 47.3034 22.8978 47.0216L24.1546 39.4155ZM38.3456 45.158C38.1434 46.3643 37.7425 47.3756 37.1429 48.1918C36.5434 49.008 35.8157 49.6238 34.9597 50.0392C34.1037 50.4545 33.1882 50.6622 32.2131 50.6622C31.1729 50.6622 30.27 50.4364 29.5043 49.985C28.7387 49.5335 28.1807 48.8726 27.8303 48.0022C27.48 47.1318 27.4096 46.0682 27.6191 44.8113C27.8141 43.605 28.2114 42.5902 28.8109 41.7667C29.4104 40.9433 30.1418 40.3203 31.005 39.8977C31.8681 39.4751 32.7909 39.2639 33.7733 39.2639C34.8062 39.2639 35.7037 39.4914 36.4657 39.9465C37.2314 40.4015 37.7876 41.0679 38.1343 41.9455C38.4846 42.8231 38.5551 43.894 38.3456 45.158ZM35.3118 44.8113C35.413 44.1757 35.4202 43.6412 35.3335 43.2078C35.2468 42.7708 35.0644 42.4421 34.7863 42.2218C34.5082 41.9979 34.1344 41.8859 33.6649 41.8859C33.1304 41.8859 32.6573 42.0159 32.2456 42.276C31.8338 42.536 31.4925 42.9098 31.2217 43.3974C30.9508 43.8849 30.7612 44.4718 30.6528 45.158C30.5373 45.8009 30.5264 46.3354 30.6203 46.7616C30.7178 47.1878 30.9093 47.5074 31.1946 47.7205C31.4835 47.9336 31.8591 48.0401 32.3214 48.0401C32.8487 48.0401 33.3146 47.9137 33.7191 47.6609C34.1272 47.4081 34.4649 47.0415 34.7322 46.5612C35.003 46.0808 35.1963 45.4975 35.3118 44.8113ZM38.8508 50.5105L40.6927 39.4155H45.4817C46.3052 39.4155 47.0004 39.5654 47.5674 39.8652C48.1345 40.165 48.5426 40.5966 48.7918 41.16C49.041 41.7234 49.1006 42.3988 48.9706 43.1861C48.8405 43.9806 48.5534 44.6506 48.1092 45.196C47.6686 45.7377 47.107 46.1494 46.4244 46.4311C45.7454 46.7092 44.9833 46.8483 44.1382 46.8483H41.2778L41.6678 44.5079H43.9215C44.2754 44.5079 44.586 44.4646 44.8533 44.3779C45.1206 44.2876 45.3373 44.1468 45.5034 43.9554C45.6695 43.7603 45.7779 43.5039 45.8284 43.1861C45.879 42.8683 45.8537 42.61 45.7526 42.4114C45.6515 42.2091 45.4835 42.0611 45.2488 41.9672C45.014 41.8697 44.7233 41.8209 44.3766 41.8209H43.3148L41.8629 50.5105H38.8508ZM46.1968 45.4181L48.1254 50.5105H44.8533L42.9897 45.4181H46.1968ZM53.5239 50.5105H49.19L51.0319 39.4155H55.1925C56.3338 39.4155 57.2873 39.6449 58.0529 40.1036C58.8186 40.5622 59.3621 41.2178 59.6836 42.0701C60.005 42.9224 60.0682 43.9373 59.8732 45.1147C59.6854 46.2488 59.3043 47.2185 58.7301 48.0239C58.1595 48.8293 57.4299 49.445 56.5415 49.8712C55.6566 50.2974 54.6508 50.5105 53.5239 50.5105ZM52.6246 47.9534H53.719C54.2679 47.9534 54.7573 47.8577 55.1871 47.6663C55.6205 47.4713 55.9816 47.1462 56.2706 46.6912C56.5631 46.2325 56.7744 45.6059 56.9044 44.8113C57.0272 44.0601 57.0236 43.4804 56.8936 43.0723C56.7636 42.6606 56.5162 42.3753 56.1514 42.2164C55.7866 42.0538 55.3153 41.9726 54.7374 41.9726H53.6214L52.6246 47.9534ZM60.9838 41.8426L61.3955 39.4155H71.0385L70.6268 41.8426H67.2897L65.8595 50.5105H62.8907L64.3209 41.8426H60.9838ZM70.3302 50.5105L72.1721 39.4155H76.9612C77.7846 39.4155 78.4799 39.5654 79.0469 39.8652C79.6139 40.165 80.022 40.5966 80.2712 41.16C80.5204 41.7234 80.58 42.3988 80.45 43.1861C80.32 43.9806 80.0329 44.6506 79.5886 45.196C79.148 45.7377 78.5864 46.1494 77.9038 46.4311C77.2248 46.7092 76.4628 46.8483 75.6176 46.8483H72.7572L73.1473 44.5079H75.4009C75.7549 44.5079 76.0655 44.4646 76.3327 44.3779C76.6 44.2876 76.8167 44.1468 76.9828 43.9554C77.149 43.7603 77.2573 43.5039 77.3079 43.1861C77.3584 42.8683 77.3332 42.61 77.232 42.4114C77.1309 42.2091 76.963 42.0611 76.7282 41.9672C76.4935 41.8697 76.2027 41.8209 75.856 41.8209H74.7942L73.3423 50.5105H70.3302ZM77.6763 45.4181L79.6049 50.5105H76.3327L74.4691 45.4181H77.6763ZM83.5515 50.5105H80.301L85.8051 39.4155H89.9224L91.7427 50.5105H88.4922L87.4087 42.471H87.322L83.5515 50.5105ZM83.6815 46.1332H89.7924L89.4023 48.3868H83.2914L83.6815 46.1332ZM104.253 39.4155L102.411 50.5105H99.8973L96.8635 44.6813H96.7985L95.8234 50.5105H92.8113L94.6532 39.4155H97.2102L100.201 45.2231H100.287L101.241 39.4155H104.253ZM111.073 42.8827C111.106 42.5252 111.019 42.2453 110.813 42.043C110.608 41.8371 110.261 41.7342 109.773 41.7342C109.463 41.7342 109.203 41.7703 108.993 41.8426C108.787 41.9148 108.627 42.0141 108.511 42.1405C108.399 42.2669 108.329 42.4132 108.3 42.5793C108.267 42.7094 108.269 42.8285 108.305 42.9369C108.345 43.0416 108.419 43.1373 108.527 43.224C108.639 43.3107 108.785 43.3883 108.966 43.457C109.15 43.5256 109.369 43.587 109.622 43.6412L110.488 43.8362C111.081 43.9662 111.577 44.1378 111.978 44.3508C112.383 44.5603 112.701 44.8095 112.932 45.0984C113.163 45.3874 113.314 45.7106 113.387 46.0682C113.463 46.4257 113.464 46.8158 113.392 47.2383C113.269 47.9679 112.986 48.5855 112.542 49.0911C112.097 49.5967 111.518 49.9814 110.803 50.245C110.087 50.5087 109.26 50.6405 108.321 50.6405C107.361 50.6405 106.544 50.4978 105.873 50.2125C105.205 49.9236 104.721 49.483 104.421 48.8907C104.125 48.2947 104.052 47.5345 104.204 46.6099H107.065C107.021 46.9494 107.057 47.2347 107.173 47.4659C107.288 47.697 107.474 47.8722 107.731 47.9914C107.987 48.1105 108.307 48.1701 108.69 48.1701C109.015 48.1701 109.293 48.1304 109.524 48.051C109.755 47.9715 109.938 47.8613 110.071 47.7205C110.205 47.5796 110.286 47.4189 110.315 47.2383C110.344 47.0722 110.315 46.9241 110.228 46.7941C110.142 46.6641 109.985 46.5467 109.757 46.442C109.529 46.3372 109.217 46.2415 108.82 46.1549L107.758 45.9165C106.815 45.6998 106.104 45.3422 105.624 44.8438C105.143 44.3454 104.973 43.6628 105.114 42.796C105.23 42.0882 105.521 41.4706 105.986 40.9433C106.456 40.4124 107.052 40.0006 107.774 39.7081C108.5 39.4119 109.304 39.2639 110.185 39.2639C111.081 39.2639 111.83 39.4137 112.433 39.7135C113.04 40.0133 113.475 40.434 113.739 40.9758C114.006 41.5175 114.078 42.1532 113.956 42.8827H111.073Z" fill="white"/>
<path d="M125.443 39.4155H128.455L127.274 46.5232C127.137 47.3684 126.816 48.0997 126.31 48.7173C125.808 49.3313 125.169 49.8062 124.392 50.1421C123.616 50.4744 122.753 50.6405 121.803 50.6405C120.846 50.6405 120.037 50.4744 119.376 50.1421C118.715 49.8062 118.234 49.3313 117.935 48.7173C117.639 48.0997 117.559 47.3684 117.696 46.5232L118.877 39.4155H121.889L120.752 46.2632C120.698 46.6063 120.725 46.9115 120.833 47.1787C120.941 47.446 121.117 47.6573 121.358 47.8126C121.6 47.9643 121.893 48.0401 122.236 48.0401C122.583 48.0401 122.902 47.9643 123.195 47.8126C123.491 47.6573 123.737 47.446 123.932 47.1787C124.127 46.9115 124.251 46.6063 124.306 46.2632L125.443 39.4155ZM130.927 50.5105H127.677L133.181 39.4155H137.298L139.118 50.5105H135.868L134.784 42.471H134.698L130.927 50.5105ZM131.057 46.1332H137.168L136.778 48.3868H130.667L131.057 46.1332Z" fill="#ED1C24"/>
<g clip-path="url(#clip0_89_1019)">
<path fill-rule="evenodd" clip-rule="evenodd" d="M40.745 3.17056H52.3138V11.8789H40.745V3.17056Z" fill="#FFD700"/>
<path fill-rule="evenodd" clip-rule="evenodd" d="M40.745 3.17056H52.3138V7.55653H40.745V3.17056Z" fill="#0057B8"/>
</g>
<g clip-path="url(#clip1_89_1019)">
<path d="M40.745 14.358H52.3156V23.0663H40.745V14.358Z" fill="#C8102E"/>
<path d="M44.4633 14.358H45.7033V23.0663H44.4633V14.358Z" fill="white"/>
<path d="M40.745 18.0898H52.3156V19.3344H40.745V18.0898Z" fill="white"/>
</g>
<g clip-path="url(#clip2_89_1019)">
<path fill-rule="evenodd" clip-rule="evenodd" d="M52.3138 34.2537H40.745V25.5453H52.3138V34.2537Z" fill="white"/>
<path fill-rule="evenodd" clip-rule="evenodd" d="M52.3138 34.2537H40.745V29.8995H52.3138V34.2537Z" fill="#DC143C"/>
</g>
<path d="M10.524 53.9609H10.8025V56.1614C10.8016 56.36 10.7658 56.5259 10.6953 56.6589C10.6248 56.791 10.5274 56.8899 10.4033 56.9554C10.2791 57.021 10.1366 57.0537 9.97571 57.0537C9.81779 57.0537 9.67676 57.0244 9.55261 56.9658C9.42846 56.9072 9.33063 56.8248 9.25912 56.7185C9.1886 56.6123 9.15334 56.4876 9.15334 56.3446H9.42746C9.42746 56.435 9.4513 56.5149 9.49897 56.5845C9.54665 56.653 9.6117 56.7066 9.69414 56.7454C9.77757 56.7841 9.87142 56.8035 9.97571 56.8035C10.084 56.8035 10.1788 56.7806 10.2603 56.7349C10.3427 56.6892 10.4073 56.6192 10.4539 56.5249C10.5006 56.4295 10.524 56.3083 10.524 56.1614V53.9609ZM14.4017 53.9609H14.6803V55.9811C14.6803 56.1887 14.6316 56.3744 14.5343 56.5383C14.437 56.7012 14.3014 56.8298 14.1276 56.9241C13.9548 57.0175 13.7537 57.0642 13.5242 57.0642C13.2958 57.0642 13.0947 57.017 12.9209 56.9226C12.7471 56.8283 12.6115 56.6997 12.5141 56.5368C12.4168 56.3739 12.3681 56.1887 12.3681 55.9811V53.9609H12.6467V55.9617C12.6467 56.1236 12.683 56.2681 12.7555 56.3953C12.828 56.5214 12.9298 56.6207 13.0609 56.6932C13.193 56.7657 13.3474 56.802 13.5242 56.802C13.701 56.802 13.8555 56.7657 13.9876 56.6932C14.1197 56.6207 14.2215 56.5214 14.293 56.3953C14.3655 56.2681 14.4017 56.1236 14.4017 55.9617V53.9609ZM17.9018 54.7237C17.8849 54.5539 17.81 54.4188 17.6769 54.3185C17.5438 54.2182 17.3764 54.168 17.1748 54.168C17.0328 54.168 16.9076 54.1923 16.7994 54.241C16.6921 54.2897 16.6077 54.3572 16.5461 54.4436C16.4855 54.529 16.4552 54.6264 16.4552 54.7356C16.4552 54.8161 16.4726 54.8866 16.5074 54.9472C16.5421 55.0078 16.5888 55.0599 16.6474 55.1036C16.707 55.1463 16.7726 55.1831 16.8441 55.2138C16.9166 55.2446 16.9896 55.2705 17.0631 55.2913L17.3849 55.3837C17.4822 55.4105 17.5795 55.4448 17.6769 55.4865C17.7742 55.5282 17.8631 55.5808 17.9435 55.6444C18.025 55.707 18.09 55.7839 18.1387 55.8753C18.1884 55.9657 18.2132 56.0744 18.2132 56.2016C18.2132 56.3645 18.171 56.511 18.0866 56.6411C18.0021 56.7712 17.881 56.8745 17.723 56.9509C17.5651 57.0264 17.3759 57.0642 17.1554 57.0642C16.9479 57.0642 16.7676 57.0299 16.6146 56.9614C16.4617 56.8919 16.3415 56.796 16.2541 56.6738C16.1667 56.5517 16.1175 56.4101 16.1066 56.2493H16.3927C16.4026 56.3694 16.4423 56.4712 16.5118 56.5547C16.5814 56.6381 16.6717 56.7017 16.783 56.7454C16.8942 56.7881 17.0184 56.8094 17.1554 56.8094C17.3074 56.8094 17.4425 56.7841 17.5607 56.7334C17.6798 56.6818 17.7732 56.6103 17.8407 56.5189C17.9093 56.4265 17.9435 56.3193 17.9435 56.1971C17.9435 56.0938 17.9167 56.0074 17.8631 55.9379C17.8095 55.8674 17.7345 55.8083 17.6381 55.7606C17.5428 55.7129 17.432 55.6707 17.3059 55.634L16.9409 55.5267C16.7015 55.4552 16.5158 55.3564 16.3837 55.2302C16.2516 55.1041 16.1856 54.9432 16.1856 54.7475C16.1856 54.5837 16.2293 54.4396 16.3167 54.3155C16.4051 54.1904 16.5243 54.093 16.6742 54.0235C16.8252 53.953 16.9945 53.9177 17.1822 53.9177C17.3719 53.9177 17.5398 53.9525 17.6858 54.022C17.8318 54.0915 17.9475 54.1874 18.0329 54.3095C18.1193 54.4307 18.1655 54.5688 18.1715 54.7237H17.9018ZM19.454 54.2112V53.9609H21.6664V54.2112H20.6995V57.012H20.4209V54.2112H19.454ZM25.2624 53.9609V57.012H24.9838V53.9609H25.2624ZM29.2049 53.9609V57.012H28.9338L27.1312 54.457H27.1073V57.012H26.8287V53.9609H27.0984L28.907 56.5189H28.9308V53.9609H29.2049ZM32.5216 54.2112V53.9609H34.734V54.2112H33.7671V57.012H33.4885V54.2112H32.5216ZM36.3949 53.9609V57.012H36.1163V53.9609H36.3949ZM37.9613 53.9609H38.2831L39.39 56.6187H39.4168L40.5237 53.9609H40.8455V57.012H40.5833V54.5494H40.5595L39.53 57.012H39.2768L38.2473 54.5494H38.2235V57.012H37.9613V53.9609ZM42.4119 57.012V53.9609H44.1817V54.2112H42.6905V55.3598H44.0879V55.6101H42.6905V56.7617H44.2115V57.012H42.4119Z" fill="#EFEFEF"/>
<defs>
<clipPath id="clip0_89_1019">
<rect width="11.5688" height="8.70836" fill="white" transform="translate(40.745 3.17056)"/>
</clipPath>
<clipPath id="clip1_89_1019">
<rect width="11.5688" height="8.70836" fill="white" transform="translate(40.745 14.358)"/>
</clipPath>
<clipPath id="clip2_89_1019">
<rect width="11.5688" height="8.70836" fill="white" transform="translate(40.745 25.5453)"/>
</clipPath>
</defs>
</svg>
