<svg width="130" height="130" viewBox="0 0 130 130" fill="none" xmlns="http://www.w3.org/2000/svg">
<path d="M42.1186 78V67.8182H48.4673V69.1406H43.6548V71.9247H45.9318C46.6875 71.9247 47.3288 72.0473 47.8558 72.2926C48.3861 72.5379 48.7905 72.8842 49.0689 73.3317C49.3506 73.7791 49.4915 74.3061 49.4915 74.9126C49.4915 75.5192 49.3506 76.0545 49.0689 76.5185C48.7905 76.9825 48.3861 77.3454 47.8558 77.6072C47.3288 77.8691 46.6875 78 45.9318 78H42.1186ZM43.6548 76.7074H45.9318C46.3693 76.7074 46.7389 76.6212 47.0405 76.4489C47.3454 76.2765 47.5758 76.0528 47.7315 75.7777C47.8906 75.5026 47.9702 75.2076 47.9702 74.8928C47.9702 74.4354 47.7945 74.0426 47.4432 73.7145C47.0919 73.383 46.5881 73.2173 45.9318 73.2173H43.6548V76.7074ZM51.2008 78V70.3636H52.6873V78H51.2008ZM51.9515 69.1854C51.693 69.1854 51.4709 69.0992 51.2853 68.9268C51.103 68.7512 51.0119 68.5424 51.0119 68.3004C51.0119 68.0552 51.103 67.8464 51.2853 67.674C51.4709 67.4983 51.693 67.4105 51.9515 67.4105C52.21 67.4105 52.4304 67.4983 52.6127 67.674C52.7983 67.8464 52.8911 68.0552 52.8911 68.3004C52.8911 68.5424 52.7983 68.7512 52.6127 68.9268C52.4304 69.0992 52.21 69.1854 51.9515 69.1854ZM54.0996 78L54.0946 76.7124H54.368C54.5801 76.7124 54.7575 76.6676 54.9 76.5781C55.0458 76.4853 55.1651 76.3295 55.2579 76.1108C55.3507 75.892 55.422 75.5904 55.4717 75.206C55.5214 74.8182 55.5579 74.331 55.5811 73.7443L55.7153 70.3636H61.0449V78H59.5882V71.6463H57.0925L56.9731 74.2415C56.9433 74.8712 56.8787 75.4214 56.7792 75.892C56.6831 76.3627 56.5423 76.7554 56.3567 77.0703C56.1711 77.3819 55.9324 77.6155 55.6407 77.7713C55.3491 77.9238 54.9944 78 54.5768 78H54.0996ZM64.1599 72.9886H66.3772C67.3119 72.9886 68.0311 73.2206 68.5349 73.6847C69.0387 74.1487 69.2906 74.7469 69.2906 75.4794C69.2906 75.9567 69.1779 76.3859 68.9525 76.767C68.7271 77.1482 68.3974 77.4498 67.9632 77.6719C67.529 77.8906 67.0003 78 66.3772 78H63.0413V70.3636H64.498V76.7173H66.3772C66.8048 76.7173 67.1561 76.6063 67.4312 76.3842C67.7063 76.1589 67.8438 75.8722 67.8438 75.5241C67.8438 75.1562 67.7063 74.8563 67.4312 74.6243C67.1561 74.389 66.8048 74.2713 66.3772 74.2713H64.1599V72.9886ZM70.9713 70.3636H72.428V76.7124H75.0679V70.3636H76.5246V76.7124H79.1645V70.3636H80.6212V78H70.9713V70.3636ZM85.9113 78.1541C85.1589 78.1541 84.5109 77.9934 83.9674 77.6719C83.4271 77.3471 83.0095 76.8913 82.7145 76.3047C82.4229 75.7147 82.277 75.0237 82.277 74.2315C82.277 73.4493 82.4229 72.7599 82.7145 72.1634C83.0095 71.5668 83.4205 71.1011 83.9475 70.7663C84.4778 70.4316 85.0976 70.2642 85.8069 70.2642C86.2377 70.2642 86.6553 70.3355 87.0597 70.478C87.4641 70.6205 87.827 70.8442 88.1485 71.1491C88.47 71.4541 88.7235 71.8501 88.9091 72.3374C89.0947 72.8213 89.1875 73.4096 89.1875 74.1023V74.6293H83.1172V73.5156H87.7309C87.7309 73.1245 87.6513 72.7782 87.4922 72.4766C87.3331 72.1716 87.1094 71.9313 86.8211 71.7557C86.536 71.58 86.2013 71.4922 85.8168 71.4922C85.3992 71.4922 85.0346 71.5949 84.7231 71.8004C84.4148 72.0026 84.1762 72.2678 84.0071 72.5959C83.8414 72.9207 83.7586 73.2737 83.7586 73.6548V74.5249C83.7586 75.0353 83.8481 75.4695 84.027 75.8274C84.2093 76.1854 84.4629 76.4588 84.7877 76.6477C85.1125 76.8333 85.492 76.9261 85.9262 76.9261C86.2079 76.9261 86.4648 76.8864 86.6968 76.8068C86.9288 76.724 87.1293 76.6013 87.2983 76.4389C87.4674 76.2765 87.5966 76.076 87.6861 75.8374L89.0931 76.0909C88.9804 76.5052 88.7782 76.8681 88.4865 77.1797C88.1982 77.4879 87.8353 77.7282 87.3978 77.9006C86.9636 78.0696 86.4681 78.1541 85.9113 78.1541Z" fill="#595959"/>
<path d="M41.9993 102V94.3636H48.2287V102H46.772V95.6463H43.446V102H41.9993ZM53.4467 102.154C52.7308 102.154 52.106 101.99 51.5724 101.662C51.0388 101.334 50.6245 100.875 50.3295 100.285C50.0345 99.6948 49.887 99.0054 49.887 98.2166C49.887 97.4245 50.0345 96.7318 50.3295 96.1385C50.6245 95.5452 51.0388 95.0845 51.5724 94.7564C52.106 94.4283 52.7308 94.2642 53.4467 94.2642C54.1626 94.2642 54.7874 94.4283 55.321 94.7564C55.8546 95.0845 56.2689 95.5452 56.5639 96.1385C56.8589 96.7318 57.0064 97.4245 57.0064 98.2166C57.0064 99.0054 56.8589 99.6948 56.5639 100.285C56.2689 100.875 55.8546 101.334 55.321 101.662C54.7874 101.99 54.1626 102.154 53.4467 102.154ZM53.4517 100.906C53.9157 100.906 54.3002 100.784 54.6051 100.538C54.91 100.293 55.1354 99.9666 55.2812 99.5589C55.4304 99.1513 55.5049 98.7022 55.5049 98.2116C55.5049 97.7244 55.4304 97.277 55.2812 96.8693C55.1354 96.4583 54.91 96.1286 54.6051 95.88C54.3002 95.6314 53.9157 95.5071 53.4517 95.5071C52.9843 95.5071 52.5966 95.6314 52.2883 95.88C51.9834 96.1286 51.7564 96.4583 51.6072 96.8693C51.4614 97.277 51.3885 97.7244 51.3885 98.2116C51.3885 98.7022 51.4614 99.1513 51.6072 99.5589C51.7564 99.9666 51.9834 100.293 52.2883 100.538C52.5966 100.784 52.9843 100.906 53.4517 100.906ZM61.8963 102.154C61.1571 102.154 60.5208 101.987 59.9872 101.652C59.4569 101.314 59.0492 100.848 58.7642 100.255C58.4791 99.6617 58.3366 98.9822 58.3366 98.2166C58.3366 97.4411 58.4824 96.7566 58.7741 96.1634C59.0658 95.5668 59.4767 95.1011 60.007 94.7663C60.5374 94.4316 61.1621 94.2642 61.8813 94.2642C62.4614 94.2642 62.9784 94.3719 63.4325 94.5874C63.8865 94.7995 64.2528 95.0978 64.5312 95.4822C64.8129 95.8667 64.9803 96.3158 65.0333 96.8295H63.5866C63.507 96.4716 63.3248 96.1634 63.0397 95.9048C62.758 95.6463 62.3802 95.517 61.9062 95.517C61.4919 95.517 61.129 95.6264 60.8174 95.8452C60.5092 96.0606 60.2689 96.3688 60.0965 96.7699C59.9242 97.1676 59.838 97.6383 59.838 98.1818C59.838 98.7386 59.9225 99.2192 60.0916 99.6236C60.2606 100.028 60.4992 100.341 60.8075 100.563C61.119 100.785 61.4853 100.896 61.9062 100.896C62.1879 100.896 62.4431 100.845 62.6718 100.742C62.9038 100.636 63.0977 100.485 63.2535 100.29C63.4126 100.094 63.5236 99.8589 63.5866 99.5838H65.0333C64.9803 100.078 64.8195 100.518 64.5511 100.906C64.2826 101.294 63.923 101.599 63.4722 101.821C63.0248 102.043 62.4995 102.154 61.8963 102.154ZM66.0354 102L66.0305 100.712H66.3039C66.516 100.712 66.6933 100.668 66.8359 100.578C66.9817 100.485 67.101 100.33 67.1938 100.111C67.2866 99.892 67.3579 99.5904 67.4076 99.206C67.4573 98.8182 67.4938 98.331 67.517 97.7443L67.6512 94.3636H72.9807V102H71.5241V95.6463H69.0283L68.909 98.2415C68.8792 98.8712 68.8145 99.4214 68.7151 99.892C68.619 100.363 68.4781 100.755 68.2925 101.07C68.1069 101.382 67.8683 101.616 67.5766 101.771C67.285 101.924 66.9303 102 66.5127 102H66.0354ZM75.6434 104.864C75.4213 104.864 75.2191 104.845 75.0368 104.809C74.8545 104.776 74.7186 104.739 74.6292 104.7L74.9871 103.482C75.2589 103.554 75.5008 103.586 75.713 103.576C75.9251 103.566 76.1123 103.487 76.2747 103.337C76.4405 103.188 76.5863 102.945 76.7122 102.607L76.8962 102.099L74.1022 94.3636H75.6931L77.627 100.29H77.7066L79.6405 94.3636H81.2364L78.0894 103.019C77.9435 103.417 77.7579 103.753 77.5326 104.028C77.3072 104.307 77.0387 104.516 76.7272 104.655C76.4156 104.794 76.0543 104.864 75.6434 104.864ZM87.5295 94.3636V95.6463H84.114V102H82.6474V94.3636H87.5295Z" fill="#595959"/>
<path d="M58.0393 24H79M79 24V44.9607M79 24C75.814 27.186 61.6725 41.3275 55 48" stroke="#595959" stroke-width="3"/>
<rect x="0.5" y="0.5" width="129" height="129" rx="64.5" stroke="#595959"/>
</svg>
