<svg width="480" height="480" viewBox="0 0 480 480" fill="none" xmlns="http://www.w3.org/2000/svg">
<g opacity="0.15">
<path d="M364.973 268.193C349.253 300.045 327.974 331.803 306.173 360.301C284.44 388.711 262.633 413.304 246.23 430.814C244.051 433.141 241.97 435.339 240 437.402C238.03 435.339 235.949 433.141 233.77 430.814C217.367 413.304 195.56 388.711 173.827 360.301C152.026 331.803 130.747 300.045 115.027 268.193C99.1441 236.012 90 205.857 90 180C90 97.1573 157.157 30 240 30C322.843 30 390 97.1573 390 180C390 205.857 380.856 236.012 364.973 268.193ZM240 480C240 480 420 309.411 420 180C420 80.5887 339.411 0 240 0C140.589 0 60 80.5887 60 180C60 309.411 240 480 240 480Z" fill="#FFE1E3"/>
<path d="M240 240C206.863 240 180 213.137 180 180C180 146.863 206.863 120 240 120C273.137 120 300 146.863 300 180C300 213.137 273.137 240 240 240ZM240 270C289.706 270 330 229.706 330 180C330 130.294 289.706 90 240 90C190.294 90 150 130.294 150 180C150 229.706 190.294 270 240 270Z" fill="#FFE1E3"/>
</g>
</svg>
