<svg width="360" height="480" viewBox="0 0 360 480" fill="none" xmlns="http://www.w3.org/2000/svg">
<path d="M304.973 268.193C289.253 300.045 267.974 331.803 246.173 360.301C224.44 388.711 202.633 413.304 186.23 430.814C184.051 433.141 181.97 435.339 180 437.402C178.03 435.339 175.949 433.141 173.77 430.814C157.367 413.304 135.56 388.711 113.827 360.301C92.0262 331.803 70.7474 300.045 55.0269 268.193C39.1441 236.012 30 205.857 30 180C30 97.1573 97.1573 30 180 30C262.843 30 330 97.1573 330 180C330 205.857 320.856 236.012 304.973 268.193ZM180 480C180 480 360 309.411 360 180C360 80.5887 279.411 0 180 0C80.5887 0 0 80.5887 0 180C0 309.411 180 480 180 480Z" fill="#FFE1E3"/>
<path d="M180 240C146.863 240 120 213.137 120 180C120 146.863 146.863 120 180 120C213.137 120 240 146.863 240 180C240 213.137 213.137 240 180 240ZM180 270C229.706 270 270 229.706 270 180C270 130.294 229.706 90 180 90C130.294 90 90 130.294 90 180C90 229.706 130.294 270 180 270Z" fill="#FFE1E3"/>
</svg>
